<svg xmlns="http://www.w3.org/2000/svg" width="200.188" height="450.428" viewBox="0 0 52.966 119.176"><path d="M26.486 0 18.84 13.239h5.454v67.668L10.374 67.73c-.899-1.121-1.53-2.588-1.564-4.097 0-6.106-.002-9.731-.005-11.066 2.578-.904 4.438-3.334 4.438-6.223a6.622 6.622 0 0 0-13.243 0c0 2.889 1.86 5.319 4.434 6.223l-.001 10.936c0 2.964 1.626 6.07 3.532 8.046-.057-.054-.117-.11.001.003.047.042 14.768 13.98 14.768 13.98.897 1.118 1.524 2.585 1.56 4.093v7.655c-5.057 1.014-8.867 5.48-8.867 10.837 0 6.107 4.95 11.058 11.056 11.058 6.107 0 11.058-4.95 11.058-11.058 0-5.358-3.813-9.824-8.874-10.838V73.066c.038-1.505.665-2.97 1.564-4.088 0 0 14.72-13.934 14.767-13.977.118-.111.056-.056 0 0 1.907-1.977 3.532-5.084 3.532-8.049l-.002-10.539h4.438V23.171h-13.24v13.242h4.432s-.005 2.776-.005 10.668c-.034 1.51-.664 2.978-1.563 4.1L28.667 64.358v-51.12h5.463z" style="fill:#fff;fill-opacity:1;stroke-width:.264583"/></svg>